<svg xmlns="http://www.w3.org/2000/svg" version="1.1" xmlns:xlink="http://www.w3.org/1999/xlink" xmlns:svgjs="http://svgjs.dev/svgjs" width="1500" height="850" preserveAspectRatio="none" viewBox="0 0 1500 850"><g mask="url(&quot;#SvgjsMask1093&quot;)" fill="none"><rect width="1500" height="850" x="0" y="0" fill="rgba(32, 32, 32, 1)"></rect><path d="M-63.07 684.22L-63.07 684.22" stroke="rgba(65, 105, 225, 0.56)" stroke-width="1.5"></path><path d="M-63.07 684.22L-40.58 791.63" stroke="rgba(65, 105, 225, 0.56)" stroke-width="1.5"></path><path d="M-63.07 684.22L50.43 699.28" stroke="rgba(65, 105, 225, 0.56)" stroke-width="1.5"></path><path d="M-63.07 684.22L79.62 820.45" stroke="rgba(65, 105, 225, 0.56)" stroke-width="1.5"></path><path d="M-63.07 684.22L229.64 665.91" stroke="rgba(65, 105, 225, 0.56)" stroke-width="1.5"></path><path d="M-63.07 684.22L-66.46 985.11" stroke="rgba(65, 105, 225, 0.56)" stroke-width="1.5"></path><path d="M-40.58 791.63L-40.58 791.63" stroke="rgba(65, 105, 225, 0.56)" stroke-width="1.5"></path><path d="M-40.58 791.63L79.62 820.45" stroke="rgba(65, 105, 225, 0.56)" stroke-width="1.5"></path><path d="M-40.58 791.63L50.43 699.28" stroke="rgba(65, 105, 225, 0.56)" stroke-width="1.5"></path><path d="M-66.46 985.11L-66.46 985.11" stroke="rgba(65, 105, 225, 0.56)" stroke-width="1.5"></path><path d="M-66.46 985.11L76.16 968.61" stroke="rgba(65, 105, 225, 0.56)" stroke-width="1.5"></path><path d="M-66.46 985.11L-40.58 791.63" stroke="rgba(65, 105, 225, 0.56)" stroke-width="1.5"></path><path d="M-66.46 985.11L79.62 820.45" stroke="rgba(65, 105, 225, 0.56)" stroke-width="1.5"></path><path d="M50.43 699.28L50.43 699.28" stroke="rgba(65, 105, 225, 0.56)" stroke-width="1.5"></path><path d="M50.43 699.28L79.62 820.45" stroke="rgba(65, 105, 225, 0.56)" stroke-width="1.5"></path><path d="M50.43 699.28L229.64 665.91" stroke="rgba(65, 105, 225, 0.56)" stroke-width="1.5"></path><path d="M79.62 820.45L79.62 820.45" stroke="rgba(65, 105, 225, 0.56)" stroke-width="1.5"></path><path d="M79.62 820.45L76.16 968.61" stroke="rgba(65, 105, 225, 0.56)" stroke-width="1.5"></path><path d="M79.62 820.45L239.33 794.56" stroke="rgba(65, 105, 225, 0.56)" stroke-width="1.5"></path><path d="M76.16 968.61L76.16 968.61" stroke="rgba(65, 105, 225, 0.56)" stroke-width="1.5"></path><path d="M76.16 968.61L254.51 1004.84" stroke="rgba(65, 105, 225, 0.56)" stroke-width="1.5"></path><path d="M76.16 968.61L-40.58 791.63" stroke="rgba(65, 105, 225, 0.56)" stroke-width="1.5"></path><path d="M76.16 968.61L239.33 794.56" stroke="rgba(65, 105, 225, 0.56)" stroke-width="1.5"></path><path d="M240.31 510.43L240.31 510.43" stroke="rgba(65, 105, 225, 0.56)" stroke-width="1.5"></path><path d="M240.31 510.43L381.69 540.48" stroke="rgba(65, 105, 225, 0.56)" stroke-width="1.5"></path><path d="M240.31 510.43L229.64 665.91" stroke="rgba(65, 105, 225, 0.56)" stroke-width="1.5"></path><path d="M229.64 665.91L229.64 665.91" stroke="rgba(65, 105, 225, 0.56)" stroke-width="1.5"></path><path d="M229.64 665.91L350.08 689.6" stroke="rgba(65, 105, 225, 0.56)" stroke-width="1.5"></path><path d="M229.64 665.91L239.33 794.56" stroke="rgba(65, 105, 225, 0.56)" stroke-width="1.5"></path><path d="M239.33 794.56L239.33 794.56" stroke="rgba(65, 105, 225, 0.56)" stroke-width="1.5"></path><path d="M239.33 794.56L364.77 858.53" stroke="rgba(65, 105, 225, 0.56)" stroke-width="1.5"></path><path d="M239.33 794.56L350.08 689.6" stroke="rgba(65, 105, 225, 0.56)" stroke-width="1.5"></path><path d="M239.33 794.56L254.51 1004.84" stroke="rgba(65, 105, 225, 0.56)" stroke-width="1.5"></path><path d="M239.33 794.56L50.43 699.28" stroke="rgba(65, 105, 225, 0.56)" stroke-width="1.5"></path><path d="M254.51 1004.84L254.51 1004.84" stroke="rgba(65, 105, 225, 0.56)" stroke-width="1.5"></path><path d="M254.51 1004.84L364.77 858.53" stroke="rgba(65, 105, 225, 0.56)" stroke-width="1.5"></path><path d="M254.51 1004.84L79.62 820.45" stroke="rgba(65, 105, 225, 0.56)" stroke-width="1.5"></path><path d="M254.51 1004.84L534.72 957.8" stroke="rgba(65, 105, 225, 0.56)" stroke-width="1.5"></path><path d="M254.51 1004.84L489.8 841.75" stroke="rgba(65, 105, 225, 0.56)" stroke-width="1.5"></path><path d="M381.69 540.48L381.69 540.48" stroke="rgba(65, 105, 225, 0.56)" stroke-width="1.5"></path><path d="M381.69 540.48L350.08 689.6" stroke="rgba(65, 105, 225, 0.56)" stroke-width="1.5"></path><path d="M381.69 540.48L525.87 648.1" stroke="rgba(65, 105, 225, 0.56)" stroke-width="1.5"></path><path d="M381.69 540.48L229.64 665.91" stroke="rgba(65, 105, 225, 0.56)" stroke-width="1.5"></path><path d="M381.69 540.48L239.33 794.56" stroke="rgba(65, 105, 225, 0.56)" stroke-width="1.5"></path><path d="M381.69 540.48L692.07 548.66" stroke="rgba(65, 105, 225, 0.56)" stroke-width="1.5"></path><path d="M350.08 689.6L350.08 689.6" stroke="rgba(65, 105, 225, 0.56)" stroke-width="1.5"></path><path d="M364.77 858.53L364.77 858.53" stroke="rgba(65, 105, 225, 0.56)" stroke-width="1.5"></path><path d="M364.77 858.53L489.8 841.75" stroke="rgba(65, 105, 225, 0.56)" stroke-width="1.5"></path><path d="M364.77 858.53L350.08 689.6" stroke="rgba(65, 105, 225, 0.56)" stroke-width="1.5"></path><path d="M364.77 858.53L534.72 957.8" stroke="rgba(65, 105, 225, 0.56)" stroke-width="1.5"></path><path d="M364.77 858.53L229.64 665.91" stroke="rgba(65, 105, 225, 0.56)" stroke-width="1.5"></path><path d="M525.87 648.1L525.87 648.1" stroke="rgba(65, 105, 225, 0.56)" stroke-width="1.5"></path><path d="M525.87 648.1L658.95 710.72" stroke="rgba(65, 105, 225, 0.56)" stroke-width="1.5"></path><path d="M525.87 648.1L350.08 689.6" stroke="rgba(65, 105, 225, 0.56)" stroke-width="1.5"></path><path d="M525.87 648.1L692.07 548.66" stroke="rgba(65, 105, 225, 0.56)" stroke-width="1.5"></path><path d="M489.8 841.75L489.8 841.75" stroke="rgba(65, 105, 225, 0.56)" stroke-width="1.5"></path><path d="M489.8 841.75L534.72 957.8" stroke="rgba(65, 105, 225, 0.56)" stroke-width="1.5"></path><path d="M489.8 841.75L525.87 648.1" stroke="rgba(65, 105, 225, 0.56)" stroke-width="1.5"></path><path d="M534.72 957.8L534.72 957.8" stroke="rgba(65, 105, 225, 0.56)" stroke-width="1.5"></path><path d="M534.72 957.8L707.31 995.76" stroke="rgba(65, 105, 225, 0.56)" stroke-width="1.5"></path><path d="M706.45 365.7L706.45 365.7" stroke="rgba(65, 105, 225, 0.56)" stroke-width="1.5"></path><path d="M706.45 365.7L857.75 348.19" stroke="rgba(65, 105, 225, 0.56)" stroke-width="1.5"></path><path d="M692.07 548.66L692.07 548.66" stroke="rgba(65, 105, 225, 0.56)" stroke-width="1.5"></path><path d="M692.07 548.66L827.12 497.58" stroke="rgba(65, 105, 225, 0.56)" stroke-width="1.5"></path><path d="M692.07 548.66L658.95 710.72" stroke="rgba(65, 105, 225, 0.56)" stroke-width="1.5"></path><path d="M692.07 548.66L706.45 365.7" stroke="rgba(65, 105, 225, 0.56)" stroke-width="1.5"></path><path d="M692.07 548.66L938.68 559.98" stroke="rgba(65, 105, 225, 0.56)" stroke-width="1.5"></path><path d="M692.07 548.66L857.75 348.19" stroke="rgba(65, 105, 225, 0.56)" stroke-width="1.5"></path><path d="M658.95 710.72L658.95 710.72" stroke="rgba(65, 105, 225, 0.56)" stroke-width="1.5"></path><path d="M658.95 710.72L690.59 847.98" stroke="rgba(65, 105, 225, 0.56)" stroke-width="1.5"></path><path d="M658.95 710.72L830.64 809.35" stroke="rgba(65, 105, 225, 0.56)" stroke-width="1.5"></path><path d="M658.95 710.72L489.8 841.75" stroke="rgba(65, 105, 225, 0.56)" stroke-width="1.5"></path><path d="M658.95 710.72L827.12 497.58" stroke="rgba(65, 105, 225, 0.56)" stroke-width="1.5"></path><path d="M690.59 847.98L690.59 847.98" stroke="rgba(65, 105, 225, 0.56)" stroke-width="1.5"></path><path d="M690.59 847.98L830.64 809.35" stroke="rgba(65, 105, 225, 0.56)" stroke-width="1.5"></path><path d="M690.59 847.98L707.31 995.76" stroke="rgba(65, 105, 225, 0.56)" stroke-width="1.5"></path><path d="M707.31 995.76L707.31 995.76" stroke="rgba(65, 105, 225, 0.56)" stroke-width="1.5"></path><path d="M707.31 995.76L803.53 1000.48" stroke="rgba(65, 105, 225, 0.56)" stroke-width="1.5"></path><path d="M707.31 995.76L830.64 809.35" stroke="rgba(65, 105, 225, 0.56)" stroke-width="1.5"></path><path d="M707.31 995.76L489.8 841.75" stroke="rgba(65, 105, 225, 0.56)" stroke-width="1.5"></path><path d="M855.14 216.11L855.14 216.11" stroke="rgba(65, 105, 225, 0.56)" stroke-width="1.5"></path><path d="M855.14 216.11L857.75 348.19" stroke="rgba(65, 105, 225, 0.56)" stroke-width="1.5"></path><path d="M855.14 216.11L997.86 251" stroke="rgba(65, 105, 225, 0.56)" stroke-width="1.5"></path><path d="M857.75 348.19L857.75 348.19" stroke="rgba(65, 105, 225, 0.56)" stroke-width="1.5"></path><path d="M857.75 348.19L962.4 368.21" stroke="rgba(65, 105, 225, 0.56)" stroke-width="1.5"></path><path d="M857.75 348.19L827.12 497.58" stroke="rgba(65, 105, 225, 0.56)" stroke-width="1.5"></path><path d="M857.75 348.19L997.86 251" stroke="rgba(65, 105, 225, 0.56)" stroke-width="1.5"></path><path d="M827.12 497.58L827.12 497.58" stroke="rgba(65, 105, 225, 0.56)" stroke-width="1.5"></path><path d="M827.12 497.58L938.68 559.98" stroke="rgba(65, 105, 225, 0.56)" stroke-width="1.5"></path><path d="M830.64 809.35L830.64 809.35" stroke="rgba(65, 105, 225, 0.56)" stroke-width="1.5"></path><path d="M830.64 809.35L970.5 860.45" stroke="rgba(65, 105, 225, 0.56)" stroke-width="1.5"></path><path d="M830.64 809.35L943.85 655.76" stroke="rgba(65, 105, 225, 0.56)" stroke-width="1.5"></path><path d="M803.53 1000.48L803.53 1000.48" stroke="rgba(65, 105, 225, 0.56)" stroke-width="1.5"></path><path d="M803.53 1000.48L690.59 847.98" stroke="rgba(65, 105, 225, 0.56)" stroke-width="1.5"></path><path d="M803.53 1000.48L830.64 809.35" stroke="rgba(65, 105, 225, 0.56)" stroke-width="1.5"></path><path d="M948.64 -74.06L948.64 -74.06" stroke="rgba(65, 105, 225, 0.56)" stroke-width="1.5"></path><path d="M948.64 -74.06L951.48 61.95" stroke="rgba(65, 105, 225, 0.56)" stroke-width="1.5"></path><path d="M948.64 -74.06L1094.96 100.63" stroke="rgba(65, 105, 225, 0.56)" stroke-width="1.5"></path><path d="M948.64 -74.06L855.14 216.11" stroke="rgba(65, 105, 225, 0.56)" stroke-width="1.5"></path><path d="M948.64 -74.06L1256.4 -108.09" stroke="rgba(65, 105, 225, 0.56)" stroke-width="1.5"></path><path d="M951.48 61.95L951.48 61.95" stroke="rgba(65, 105, 225, 0.56)" stroke-width="1.5"></path><path d="M951.48 61.95L1094.96 100.63" stroke="rgba(65, 105, 225, 0.56)" stroke-width="1.5"></path><path d="M951.48 61.95L855.14 216.11" stroke="rgba(65, 105, 225, 0.56)" stroke-width="1.5"></path><path d="M951.48 61.95L997.86 251" stroke="rgba(65, 105, 225, 0.56)" stroke-width="1.5"></path><path d="M997.86 251L997.86 251" stroke="rgba(65, 105, 225, 0.56)" stroke-width="1.5"></path><path d="M997.86 251L962.4 368.21" stroke="rgba(65, 105, 225, 0.56)" stroke-width="1.5"></path><path d="M997.86 251L1094.96 100.63" stroke="rgba(65, 105, 225, 0.56)" stroke-width="1.5"></path><path d="M962.4 368.21L962.4 368.21" stroke="rgba(65, 105, 225, 0.56)" stroke-width="1.5"></path><path d="M962.4 368.21L1145.36 401.63" stroke="rgba(65, 105, 225, 0.56)" stroke-width="1.5"></path><path d="M962.4 368.21L855.14 216.11" stroke="rgba(65, 105, 225, 0.56)" stroke-width="1.5"></path><path d="M962.4 368.21L827.12 497.58" stroke="rgba(65, 105, 225, 0.56)" stroke-width="1.5"></path><path d="M938.68 559.98L938.68 559.98" stroke="rgba(65, 105, 225, 0.56)" stroke-width="1.5"></path><path d="M938.68 559.98L943.85 655.76" stroke="rgba(65, 105, 225, 0.56)" stroke-width="1.5"></path><path d="M938.68 559.98L962.4 368.21" stroke="rgba(65, 105, 225, 0.56)" stroke-width="1.5"></path><path d="M943.85 655.76L943.85 655.76" stroke="rgba(65, 105, 225, 0.56)" stroke-width="1.5"></path><path d="M943.85 655.76L827.12 497.58" stroke="rgba(65, 105, 225, 0.56)" stroke-width="1.5"></path><path d="M943.85 655.76L970.5 860.45" stroke="rgba(65, 105, 225, 0.56)" stroke-width="1.5"></path><path d="M970.5 860.45L970.5 860.45" stroke="rgba(65, 105, 225, 0.56)" stroke-width="1.5"></path><path d="M970.5 860.45L1004.44 955.66" stroke="rgba(65, 105, 225, 0.56)" stroke-width="1.5"></path><path d="M970.5 860.45L1100.38 954.87" stroke="rgba(65, 105, 225, 0.56)" stroke-width="1.5"></path><path d="M1004.44 955.66L1004.44 955.66" stroke="rgba(65, 105, 225, 0.56)" stroke-width="1.5"></path><path d="M1004.44 955.66L1100.38 954.87" stroke="rgba(65, 105, 225, 0.56)" stroke-width="1.5"></path><path d="M1004.44 955.66L803.53 1000.48" stroke="rgba(65, 105, 225, 0.56)" stroke-width="1.5"></path><path d="M1004.44 955.66L1136.6 791.3" stroke="rgba(65, 105, 225, 0.56)" stroke-width="1.5"></path><path d="M1004.44 955.66L830.64 809.35" stroke="rgba(65, 105, 225, 0.56)" stroke-width="1.5"></path><path d="M1004.44 955.66L707.31 995.76" stroke="rgba(65, 105, 225, 0.56)" stroke-width="1.5"></path><path d="M1094.96 100.63L1094.96 100.63" stroke="rgba(65, 105, 225, 0.56)" stroke-width="1.5"></path><path d="M1094.96 100.63L1275.13 217.32" stroke="rgba(65, 105, 225, 0.56)" stroke-width="1.5"></path><path d="M1145.36 401.63L1145.36 401.63" stroke="rgba(65, 105, 225, 0.56)" stroke-width="1.5"></path><path d="M1145.36 401.63L1260.31 409.91" stroke="rgba(65, 105, 225, 0.56)" stroke-width="1.5"></path><path d="M1145.36 401.63L1155.97 536.37" stroke="rgba(65, 105, 225, 0.56)" stroke-width="1.5"></path><path d="M1145.36 401.63L1266.72 513.9" stroke="rgba(65, 105, 225, 0.56)" stroke-width="1.5"></path><path d="M1145.36 401.63L997.86 251" stroke="rgba(65, 105, 225, 0.56)" stroke-width="1.5"></path><path d="M1155.97 536.37L1155.97 536.37" stroke="rgba(65, 105, 225, 0.56)" stroke-width="1.5"></path><path d="M1155.97 536.37L1266.72 513.9" stroke="rgba(65, 105, 225, 0.56)" stroke-width="1.5"></path><path d="M1155.97 536.37L1162.38 682.11" stroke="rgba(65, 105, 225, 0.56)" stroke-width="1.5"></path><path d="M1162.38 682.11L1162.38 682.11" stroke="rgba(65, 105, 225, 0.56)" stroke-width="1.5"></path><path d="M1162.38 682.11L1242.56 708.39" stroke="rgba(65, 105, 225, 0.56)" stroke-width="1.5"></path><path d="M1162.38 682.11L1136.6 791.3" stroke="rgba(65, 105, 225, 0.56)" stroke-width="1.5"></path><path d="M1136.6 791.3L1136.6 791.3" stroke="rgba(65, 105, 225, 0.56)" stroke-width="1.5"></path><path d="M1136.6 791.3L1242.56 708.39" stroke="rgba(65, 105, 225, 0.56)" stroke-width="1.5"></path><path d="M1136.6 791.3L1302.63 806.42" stroke="rgba(65, 105, 225, 0.56)" stroke-width="1.5"></path><path d="M1136.6 791.3L1100.38 954.87" stroke="rgba(65, 105, 225, 0.56)" stroke-width="1.5"></path><path d="M1136.6 791.3L970.5 860.45" stroke="rgba(65, 105, 225, 0.56)" stroke-width="1.5"></path><path d="M1100.38 954.87L1100.38 954.87" stroke="rgba(65, 105, 225, 0.56)" stroke-width="1.5"></path><path d="M1100.38 954.87L1302.63 806.42" stroke="rgba(65, 105, 225, 0.56)" stroke-width="1.5"></path><path d="M1100.38 954.87L1162.38 682.11" stroke="rgba(65, 105, 225, 0.56)" stroke-width="1.5"></path><path d="M1100.38 954.87L1242.56 708.39" stroke="rgba(65, 105, 225, 0.56)" stroke-width="1.5"></path><path d="M1256.4 -108.09L1256.4 -108.09" stroke="rgba(65, 105, 225, 0.56)" stroke-width="1.5"></path><path d="M1256.4 -108.09L1390.21 -73.79" stroke="rgba(65, 105, 225, 0.56)" stroke-width="1.5"></path><path d="M1256.4 -108.09L1446.56 61.63" stroke="rgba(65, 105, 225, 0.56)" stroke-width="1.5"></path><path d="M1256.4 -108.09L1094.96 100.63" stroke="rgba(65, 105, 225, 0.56)" stroke-width="1.5"></path><path d="M1256.4 -108.09L1275.13 217.32" stroke="rgba(65, 105, 225, 0.56)" stroke-width="1.5"></path><path d="M1256.4 -108.09L1596.87 -84.27" stroke="rgba(65, 105, 225, 0.56)" stroke-width="1.5"></path><path d="M1275.13 217.32L1275.13 217.32" stroke="rgba(65, 105, 225, 0.56)" stroke-width="1.5"></path><path d="M1275.13 217.32L1260.31 409.91" stroke="rgba(65, 105, 225, 0.56)" stroke-width="1.5"></path><path d="M1275.13 217.32L1433.44 365.92" stroke="rgba(65, 105, 225, 0.56)" stroke-width="1.5"></path><path d="M1275.13 217.32L1145.36 401.63" stroke="rgba(65, 105, 225, 0.56)" stroke-width="1.5"></path><path d="M1275.13 217.32L1446.56 61.63" stroke="rgba(65, 105, 225, 0.56)" stroke-width="1.5"></path><path d="M1275.13 217.32L997.86 251" stroke="rgba(65, 105, 225, 0.56)" stroke-width="1.5"></path><path d="M1260.31 409.91L1260.31 409.91" stroke="rgba(65, 105, 225, 0.56)" stroke-width="1.5"></path><path d="M1260.31 409.91L1266.72 513.9" stroke="rgba(65, 105, 225, 0.56)" stroke-width="1.5"></path><path d="M1260.31 409.91L1155.97 536.37" stroke="rgba(65, 105, 225, 0.56)" stroke-width="1.5"></path><path d="M1260.31 409.91L1433.44 365.92" stroke="rgba(65, 105, 225, 0.56)" stroke-width="1.5"></path><path d="M1260.31 409.91L1425.57 532.66" stroke="rgba(65, 105, 225, 0.56)" stroke-width="1.5"></path><path d="M1266.72 513.9L1266.72 513.9" stroke="rgba(65, 105, 225, 0.56)" stroke-width="1.5"></path><path d="M1266.72 513.9L1425.57 532.66" stroke="rgba(65, 105, 225, 0.56)" stroke-width="1.5"></path><path d="M1266.72 513.9L1242.56 708.39" stroke="rgba(65, 105, 225, 0.56)" stroke-width="1.5"></path><path d="M1266.72 513.9L1162.38 682.11" stroke="rgba(65, 105, 225, 0.56)" stroke-width="1.5"></path><path d="M1242.56 708.39L1242.56 708.39" stroke="rgba(65, 105, 225, 0.56)" stroke-width="1.5"></path><path d="M1242.56 708.39L1302.63 806.42" stroke="rgba(65, 105, 225, 0.56)" stroke-width="1.5"></path><path d="M1242.56 708.39L1411.63 701.44" stroke="rgba(65, 105, 225, 0.56)" stroke-width="1.5"></path><path d="M1242.56 708.39L1155.97 536.37" stroke="rgba(65, 105, 225, 0.56)" stroke-width="1.5"></path><path d="M1302.63 806.42L1302.63 806.42" stroke="rgba(65, 105, 225, 0.56)" stroke-width="1.5"></path><path d="M1302.63 806.42L1428.14 843.28" stroke="rgba(65, 105, 225, 0.56)" stroke-width="1.5"></path><path d="M1390.21 -73.79L1390.21 -73.79" stroke="rgba(65, 105, 225, 0.56)" stroke-width="1.5"></path><path d="M1390.21 -73.79L1446.56 61.63" stroke="rgba(65, 105, 225, 0.56)" stroke-width="1.5"></path><path d="M1446.56 61.63L1446.56 61.63" stroke="rgba(65, 105, 225, 0.56)" stroke-width="1.5"></path><path d="M1446.56 61.63L1569.49 37.57" stroke="rgba(65, 105, 225, 0.56)" stroke-width="1.5"></path><path d="M1433.44 365.92L1433.44 365.92" stroke="rgba(65, 105, 225, 0.56)" stroke-width="1.5"></path><path d="M1433.44 365.92L1547.45 369.06" stroke="rgba(65, 105, 225, 0.56)" stroke-width="1.5"></path><path d="M1433.44 365.92L1425.57 532.66" stroke="rgba(65, 105, 225, 0.56)" stroke-width="1.5"></path><path d="M1433.44 365.92L1559.27 240.73" stroke="rgba(65, 105, 225, 0.56)" stroke-width="1.5"></path><path d="M1433.44 365.92L1575.38 492.18" stroke="rgba(65, 105, 225, 0.56)" stroke-width="1.5"></path><path d="M1425.57 532.66L1425.57 532.66" stroke="rgba(65, 105, 225, 0.56)" stroke-width="1.5"></path><path d="M1425.57 532.66L1575.38 492.18" stroke="rgba(65, 105, 225, 0.56)" stroke-width="1.5"></path><path d="M1425.57 532.66L1556.7 639.63" stroke="rgba(65, 105, 225, 0.56)" stroke-width="1.5"></path><path d="M1425.57 532.66L1411.63 701.44" stroke="rgba(65, 105, 225, 0.56)" stroke-width="1.5"></path><path d="M1411.63 701.44L1411.63 701.44" stroke="rgba(65, 105, 225, 0.56)" stroke-width="1.5"></path><path d="M1411.63 701.44L1428.14 843.28" stroke="rgba(65, 105, 225, 0.56)" stroke-width="1.5"></path><path d="M1411.63 701.44L1302.63 806.42" stroke="rgba(65, 105, 225, 0.56)" stroke-width="1.5"></path><path d="M1411.63 701.44L1556.7 639.63" stroke="rgba(65, 105, 225, 0.56)" stroke-width="1.5"></path><path d="M1411.63 701.44L1587.6 788.53" stroke="rgba(65, 105, 225, 0.56)" stroke-width="1.5"></path><path d="M1428.14 843.28L1428.14 843.28" stroke="rgba(65, 105, 225, 0.56)" stroke-width="1.5"></path><path d="M1428.14 843.28L1448.5 969.61" stroke="rgba(65, 105, 225, 0.56)" stroke-width="1.5"></path><path d="M1428.14 843.28L1587.6 788.53" stroke="rgba(65, 105, 225, 0.56)" stroke-width="1.5"></path><path d="M1428.14 843.28L1584.12 944.56" stroke="rgba(65, 105, 225, 0.56)" stroke-width="1.5"></path><path d="M1428.14 843.28L1242.56 708.39" stroke="rgba(65, 105, 225, 0.56)" stroke-width="1.5"></path><path d="M1448.5 969.61L1448.5 969.61" stroke="rgba(65, 105, 225, 0.56)" stroke-width="1.5"></path><path d="M1448.5 969.61L1584.12 944.56" stroke="rgba(65, 105, 225, 0.56)" stroke-width="1.5"></path><path d="M1448.5 969.61L1302.63 806.42" stroke="rgba(65, 105, 225, 0.56)" stroke-width="1.5"></path><path d="M1448.5 969.61L1587.6 788.53" stroke="rgba(65, 105, 225, 0.56)" stroke-width="1.5"></path><path d="M1448.5 969.61L1411.63 701.44" stroke="rgba(65, 105, 225, 0.56)" stroke-width="1.5"></path><path d="M1448.5 969.61L1242.56 708.39" stroke="rgba(65, 105, 225, 0.56)" stroke-width="1.5"></path><path d="M1596.87 -84.27L1596.87 -84.27" stroke="rgba(65, 105, 225, 0.56)" stroke-width="1.5"></path><path d="M1596.87 -84.27L1569.49 37.57" stroke="rgba(65, 105, 225, 0.56)" stroke-width="1.5"></path><path d="M1596.87 -84.27L1390.21 -73.79" stroke="rgba(65, 105, 225, 0.56)" stroke-width="1.5"></path><path d="M1596.87 -84.27L1446.56 61.63" stroke="rgba(65, 105, 225, 0.56)" stroke-width="1.5"></path><path d="M1596.87 -84.27L1559.27 240.73" stroke="rgba(65, 105, 225, 0.56)" stroke-width="1.5"></path><path d="M1569.49 37.57L1569.49 37.57" stroke="rgba(65, 105, 225, 0.56)" stroke-width="1.5"></path><path d="M1569.49 37.57L1559.27 240.73" stroke="rgba(65, 105, 225, 0.56)" stroke-width="1.5"></path><path d="M1569.49 37.57L1390.21 -73.79" stroke="rgba(65, 105, 225, 0.56)" stroke-width="1.5"></path><path d="M1559.27 240.73L1559.27 240.73" stroke="rgba(65, 105, 225, 0.56)" stroke-width="1.5"></path><path d="M1559.27 240.73L1547.45 369.06" stroke="rgba(65, 105, 225, 0.56)" stroke-width="1.5"></path><path d="M1559.27 240.73L1446.56 61.63" stroke="rgba(65, 105, 225, 0.56)" stroke-width="1.5"></path><path d="M1559.27 240.73L1575.38 492.18" stroke="rgba(65, 105, 225, 0.56)" stroke-width="1.5"></path><path d="M1559.27 240.73L1275.13 217.32" stroke="rgba(65, 105, 225, 0.56)" stroke-width="1.5"></path><path d="M1547.45 369.06L1547.45 369.06" stroke="rgba(65, 105, 225, 0.56)" stroke-width="1.5"></path><path d="M1547.45 369.06L1575.38 492.18" stroke="rgba(65, 105, 225, 0.56)" stroke-width="1.5"></path><path d="M1547.45 369.06L1425.57 532.66" stroke="rgba(65, 105, 225, 0.56)" stroke-width="1.5"></path><path d="M1575.38 492.18L1575.38 492.18" stroke="rgba(65, 105, 225, 0.56)" stroke-width="1.5"></path><path d="M1575.38 492.18L1556.7 639.63" stroke="rgba(65, 105, 225, 0.56)" stroke-width="1.5"></path><path d="M1556.7 639.63L1556.7 639.63" stroke="rgba(65, 105, 225, 0.56)" stroke-width="1.5"></path><path d="M1556.7 639.63L1587.6 788.53" stroke="rgba(65, 105, 225, 0.56)" stroke-width="1.5"></path><path d="M1556.7 639.63L1428.14 843.28" stroke="rgba(65, 105, 225, 0.56)" stroke-width="1.5"></path><path d="M1587.6 788.53L1587.6 788.53" stroke="rgba(65, 105, 225, 0.56)" stroke-width="1.5"></path><path d="M1587.6 788.53L1584.12 944.56" stroke="rgba(65, 105, 225, 0.56)" stroke-width="1.5"></path><path d="M1587.6 788.53L1302.63 806.42" stroke="rgba(65, 105, 225, 0.56)" stroke-width="1.5"></path><path d="M1584.12 944.56L1584.12 944.56" stroke="rgba(65, 105, 225, 0.56)" stroke-width="1.5"></path><circle r="5" cx="-63.07" cy="684.22" fill="rgba(65, 105, 225, 0.56)"></circle><circle r="5" cx="-40.58" cy="791.63" fill="rgba(65, 105, 225, 0.56)"></circle><circle r="5" cx="-66.46" cy="985.11" fill="rgba(65, 105, 225, 0.56)"></circle><circle r="5" cx="50.43" cy="699.28" fill="rgba(65, 105, 225, 0.56)"></circle><circle r="5" cx="79.62" cy="820.45" fill="rgba(65, 105, 225, 0.56)"></circle><circle r="5" cx="76.16" cy="968.61" fill="rgba(65, 105, 225, 0.56)"></circle><circle r="5" cx="240.31" cy="510.43" fill="rgba(65, 105, 225, 0.56)"></circle><circle r="5" cx="229.64" cy="665.91" fill="rgba(65, 105, 225, 0.56)"></circle><circle r="5" cx="239.33" cy="794.56" fill="rgba(65, 105, 225, 0.56)"></circle><circle r="5" cx="254.51" cy="1004.84" fill="rgba(65, 105, 225, 0.56)"></circle><circle r="5" cx="381.69" cy="540.48" fill="rgba(65, 105, 225, 0.56)"></circle><circle r="5" cx="350.08" cy="689.6" fill="rgba(65, 105, 225, 0.56)"></circle><circle r="5" cx="364.77" cy="858.53" fill="rgba(65, 105, 225, 0.56)"></circle><circle r="5" cx="525.87" cy="648.1" fill="rgba(65, 105, 225, 0.56)"></circle><circle r="5" cx="489.8" cy="841.75" fill="rgba(65, 105, 225, 0.56)"></circle><circle r="5" cx="534.72" cy="957.8" fill="rgba(65, 105, 225, 0.56)"></circle><circle r="5" cx="706.45" cy="365.7" fill="rgba(65, 105, 225, 0.56)"></circle><circle r="5" cx="692.07" cy="548.66" fill="rgba(65, 105, 225, 0.56)"></circle><circle r="5" cx="658.95" cy="710.72" fill="rgba(65, 105, 225, 0.56)"></circle><circle r="5" cx="690.59" cy="847.98" fill="rgba(65, 105, 225, 0.56)"></circle><circle r="5" cx="707.31" cy="995.76" fill="rgba(65, 105, 225, 0.56)"></circle><circle r="5" cx="855.14" cy="216.11" fill="rgba(65, 105, 225, 0.56)"></circle><circle r="5" cx="857.75" cy="348.19" fill="rgba(65, 105, 225, 0.56)"></circle><circle r="5" cx="827.12" cy="497.58" fill="rgba(65, 105, 225, 0.56)"></circle><circle r="5" cx="830.64" cy="809.35" fill="rgba(65, 105, 225, 0.56)"></circle><circle r="5" cx="803.53" cy="1000.48" fill="rgba(65, 105, 225, 0.56)"></circle><circle r="5" cx="948.64" cy="-74.06" fill="rgba(65, 105, 225, 0.56)"></circle><circle r="5" cx="951.48" cy="61.95" fill="rgba(65, 105, 225, 0.56)"></circle><circle r="5" cx="997.86" cy="251" fill="rgba(65, 105, 225, 0.56)"></circle><circle r="5" cx="962.4" cy="368.21" fill="rgba(65, 105, 225, 0.56)"></circle><circle r="5" cx="938.68" cy="559.98" fill="rgba(65, 105, 225, 0.56)"></circle><circle r="5" cx="943.85" cy="655.76" fill="rgba(65, 105, 225, 0.56)"></circle><circle r="5" cx="970.5" cy="860.45" fill="rgba(65, 105, 225, 0.56)"></circle><circle r="5" cx="1004.44" cy="955.66" fill="rgba(65, 105, 225, 0.56)"></circle><circle r="5" cx="1094.96" cy="100.63" fill="rgba(65, 105, 225, 0.56)"></circle><circle r="5" cx="1145.36" cy="401.63" fill="rgba(65, 105, 225, 0.56)"></circle><circle r="5" cx="1155.97" cy="536.37" fill="rgba(65, 105, 225, 0.56)"></circle><circle r="5" cx="1162.38" cy="682.11" fill="rgba(65, 105, 225, 0.56)"></circle><circle r="5" cx="1136.6" cy="791.3" fill="rgba(65, 105, 225, 0.56)"></circle><circle r="5" cx="1100.38" cy="954.87" fill="rgba(65, 105, 225, 0.56)"></circle><circle r="5" cx="1256.4" cy="-108.09" fill="rgba(65, 105, 225, 0.56)"></circle><circle r="5" cx="1275.13" cy="217.32" fill="rgba(65, 105, 225, 0.56)"></circle><circle r="5" cx="1260.31" cy="409.91" fill="rgba(65, 105, 225, 0.56)"></circle><circle r="5" cx="1266.72" cy="513.9" fill="rgba(65, 105, 225, 0.56)"></circle><circle r="5" cx="1242.56" cy="708.39" fill="rgba(65, 105, 225, 0.56)"></circle><circle r="5" cx="1302.63" cy="806.42" fill="rgba(65, 105, 225, 0.56)"></circle><circle r="5" cx="1390.21" cy="-73.79" fill="rgba(65, 105, 225, 0.56)"></circle><circle r="5" cx="1446.56" cy="61.63" fill="rgba(65, 105, 225, 0.56)"></circle><circle r="5" cx="1433.44" cy="365.92" fill="rgba(65, 105, 225, 0.56)"></circle><circle r="5" cx="1425.57" cy="532.66" fill="rgba(65, 105, 225, 0.56)"></circle><circle r="5" cx="1411.63" cy="701.44" fill="rgba(65, 105, 225, 0.56)"></circle><circle r="5" cx="1428.14" cy="843.28" fill="rgba(65, 105, 225, 0.56)"></circle><circle r="5" cx="1448.5" cy="969.61" fill="rgba(65, 105, 225, 0.56)"></circle><circle r="5" cx="1596.87" cy="-84.27" fill="rgba(65, 105, 225, 0.56)"></circle><circle r="5" cx="1569.49" cy="37.57" fill="rgba(65, 105, 225, 0.56)"></circle><circle r="5" cx="1559.27" cy="240.73" fill="rgba(65, 105, 225, 0.56)"></circle><circle r="5" cx="1547.45" cy="369.06" fill="rgba(65, 105, 225, 0.56)"></circle><circle r="5" cx="1575.38" cy="492.18" fill="rgba(65, 105, 225, 0.56)"></circle><circle r="5" cx="1556.7" cy="639.63" fill="rgba(65, 105, 225, 0.56)"></circle><circle r="5" cx="1587.6" cy="788.53" fill="rgba(65, 105, 225, 0.56)"></circle><circle r="5" cx="1584.12" cy="944.56" fill="rgba(65, 105, 225, 0.56)"></circle><path d="M-110.57 1007.94L-110.57 1007.94" stroke="hsl(225, 72.7%, 73.9%)" stroke-width="1.5"></path><path d="M-110.57 1007.94L-88.77 813.76" stroke="hsl(225, 72.7%, 73.9%)" stroke-width="1.5"></path><path d="M-110.57 1007.94L107.41 957.6" stroke="hsl(225, 72.7%, 73.9%)" stroke-width="1.5"></path><path d="M-110.57 1007.94L88.17 794.24" stroke="hsl(225, 72.7%, 73.9%)" stroke-width="1.5"></path><path d="M-110.57 1007.94L222.76 954.73" stroke="hsl(225, 72.7%, 73.9%)" stroke-width="1.5"></path><path d="M377.72 711.87L377.72 711.87" stroke="hsl(225, 72.7%, 73.9%)" stroke-width="1.5"></path><path d="M377.72 711.87L259.35 668.01" stroke="hsl(225, 72.7%, 73.9%)" stroke-width="1.5"></path><path d="M377.72 711.87L514.91 656.21" stroke="hsl(225, 72.7%, 73.9%)" stroke-width="1.5"></path><path d="M377.72 711.87L218.15 855.64" stroke="hsl(225, 72.7%, 73.9%)" stroke-width="1.5"></path><path d="M339.78 970.09L339.78 970.09" stroke="hsl(225, 72.7%, 73.9%)" stroke-width="1.5"></path><path d="M339.78 970.09L222.76 954.73" stroke="hsl(225, 72.7%, 73.9%)" stroke-width="1.5"></path><path d="M497.29 966.81L497.29 966.81" stroke="hsl(225, 72.7%, 73.9%)" stroke-width="1.5"></path><path d="M497.29 966.81L339.78 970.09" stroke="hsl(225, 72.7%, 73.9%)" stroke-width="1.5"></path><path d="M497.29 966.81L692.19 975.8" stroke="hsl(225, 72.7%, 73.9%)" stroke-width="1.5"></path><path d="M497.29 966.81L653.36 809.15" stroke="hsl(225, 72.7%, 73.9%)" stroke-width="1.5"></path><path d="M497.29 966.81L222.76 954.73" stroke="hsl(225, 72.7%, 73.9%)" stroke-width="1.5"></path><path d="M653.36 809.15L653.36 809.15" stroke="hsl(225, 72.7%, 73.9%)" stroke-width="1.5"></path><path d="M653.36 809.15L702.59 669.45" stroke="hsl(225, 72.7%, 73.9%)" stroke-width="1.5"></path><path d="M653.36 809.15L692.19 975.8" stroke="hsl(225, 72.7%, 73.9%)" stroke-width="1.5"></path><path d="M653.36 809.15L514.91 656.21" stroke="hsl(225, 72.7%, 73.9%)" stroke-width="1.5"></path><path d="M653.36 809.15L803.58 659.35" stroke="hsl(225, 72.7%, 73.9%)" stroke-width="1.5"></path><path d="M653.36 809.15L691.07 557.74" stroke="hsl(225, 72.7%, 73.9%)" stroke-width="1.5"></path><path d="M803.58 659.35L803.58 659.35" stroke="hsl(225, 72.7%, 73.9%)" stroke-width="1.5"></path><path d="M803.58 659.35L702.59 669.45" stroke="hsl(225, 72.7%, 73.9%)" stroke-width="1.5"></path><path d="M803.58 659.35L855 559.45" stroke="hsl(225, 72.7%, 73.9%)" stroke-width="1.5"></path><path d="M803.58 659.35L691.07 557.74" stroke="hsl(225, 72.7%, 73.9%)" stroke-width="1.5"></path><path d="M803.58 659.35L947.96 788.59" stroke="hsl(225, 72.7%, 73.9%)" stroke-width="1.5"></path><path d="M1147.77 671.68L1147.77 671.68" stroke="hsl(225, 72.7%, 73.9%)" stroke-width="1.5"></path><path d="M1147.77 671.68L1275.9 684.04" stroke="hsl(225, 72.7%, 73.9%)" stroke-width="1.5"></path><path d="M1147.77 671.68L1249.3 562.01" stroke="hsl(225, 72.7%, 73.9%)" stroke-width="1.5"></path><path d="M1147.77 671.68L1115.65 818.18" stroke="hsl(225, 72.7%, 73.9%)" stroke-width="1.5"></path><path d="M1147.77 671.68L1124.25 521.02" stroke="hsl(225, 72.7%, 73.9%)" stroke-width="1.5"></path><path d="M1275.9 684.04L1275.9 684.04" stroke="hsl(225, 72.7%, 73.9%)" stroke-width="1.5"></path><path d="M1275.9 684.04L1249.3 562.01" stroke="hsl(225, 72.7%, 73.9%)" stroke-width="1.5"></path><path d="M1275.9 684.04L1401.47 695.91" stroke="hsl(225, 72.7%, 73.9%)" stroke-width="1.5"></path><path d="M1423.71 384.5L1423.71 384.5" stroke="hsl(225, 72.7%, 73.9%)" stroke-width="1.5"></path><path d="M1423.71 384.5L1303.21 373.94" stroke="hsl(225, 72.7%, 73.9%)" stroke-width="1.5"></path><path d="M1423.71 384.5L1600.72 382.85" stroke="hsl(225, 72.7%, 73.9%)" stroke-width="1.5"></path><path d="M1423.71 384.5L1563.79 545.22" stroke="hsl(225, 72.7%, 73.9%)" stroke-width="1.5"></path><path d="M1423.71 384.5L1594.72 234.56" stroke="hsl(225, 72.7%, 73.9%)" stroke-width="1.5"></path><path d="M1423.71 384.5L1249.3 562.01" stroke="hsl(225, 72.7%, 73.9%)" stroke-width="1.5"></path><path d="M1416.56 793.3L1416.56 793.3" stroke="hsl(225, 72.7%, 73.9%)" stroke-width="1.5"></path><path d="M1416.56 793.3L1401.47 695.91" stroke="hsl(225, 72.7%, 73.9%)" stroke-width="1.5"></path><path d="M1431.23 995.78L1431.23 995.78" stroke="hsl(225, 72.7%, 73.9%)" stroke-width="1.5"></path><path d="M1431.23 995.78L1582.98 1005.54" stroke="hsl(225, 72.7%, 73.9%)" stroke-width="1.5"></path><path d="M1431.23 995.78L1270.79 1010.64" stroke="hsl(225, 72.7%, 73.9%)" stroke-width="1.5"></path><path d="M1431.23 995.78L1416.56 793.3" stroke="hsl(225, 72.7%, 73.9%)" stroke-width="1.5"></path><path d="M1600.13 54.19L1600.13 54.19" stroke="hsl(225, 72.7%, 73.9%)" stroke-width="1.5"></path><path d="M1600.13 54.19L1565.65 -89.35" stroke="hsl(225, 72.7%, 73.9%)" stroke-width="1.5"></path><path d="M1600.13 54.19L1436.49 60.27" stroke="hsl(225, 72.7%, 73.9%)" stroke-width="1.5"></path><path d="M1600.13 54.19L1459.68 -47.79" stroke="hsl(225, 72.7%, 73.9%)" stroke-width="1.5"></path><path d="M1600.72 382.85L1600.72 382.85" stroke="hsl(225, 72.7%, 73.9%)" stroke-width="1.5"></path><path d="M1600.72 382.85L1594.72 234.56" stroke="hsl(225, 72.7%, 73.9%)" stroke-width="1.5"></path><path d="M1600.72 382.85L1563.79 545.22" stroke="hsl(225, 72.7%, 73.9%)" stroke-width="1.5"></path><path d="M1563.79 545.22L1563.79 545.22" stroke="hsl(225, 72.7%, 73.9%)" stroke-width="1.5"></path><path d="M1563.79 545.22L1606.8 684.67" stroke="hsl(225, 72.7%, 73.9%)" stroke-width="1.5"></path><path d="M-88.77 813.76L-88.77 813.76" stroke="hsl(225, 72.7%, 73.9%)" stroke-width="1.5"></path><path d="M-88.77 813.76L88.17 794.24" stroke="hsl(225, 72.7%, 73.9%)" stroke-width="1.5"></path><path d="M-88.77 813.76L63.12 704.29" stroke="hsl(225, 72.7%, 73.9%)" stroke-width="1.5"></path><path d="M-88.77 813.76L107.41 957.6" stroke="hsl(225, 72.7%, 73.9%)" stroke-width="1.5"></path><path d="M-88.77 813.76L218.15 855.64" stroke="hsl(225, 72.7%, 73.9%)" stroke-width="1.5"></path><path d="M63.12 704.29L63.12 704.29" stroke="hsl(225, 72.7%, 73.9%)" stroke-width="1.5"></path><path d="M63.12 704.29L88.17 794.24" stroke="hsl(225, 72.7%, 73.9%)" stroke-width="1.5"></path><path d="M88.17 794.24L88.17 794.24" stroke="hsl(225, 72.7%, 73.9%)" stroke-width="1.5"></path><path d="M88.17 794.24L218.15 855.64" stroke="hsl(225, 72.7%, 73.9%)" stroke-width="1.5"></path><path d="M107.41 957.6L107.41 957.6" stroke="hsl(225, 72.7%, 73.9%)" stroke-width="1.5"></path><path d="M107.41 957.6L222.76 954.73" stroke="hsl(225, 72.7%, 73.9%)" stroke-width="1.5"></path><path d="M107.41 957.6L218.15 855.64" stroke="hsl(225, 72.7%, 73.9%)" stroke-width="1.5"></path><path d="M107.41 957.6L88.17 794.24" stroke="hsl(225, 72.7%, 73.9%)" stroke-width="1.5"></path><path d="M259.35 668.01L259.35 668.01" stroke="hsl(225, 72.7%, 73.9%)" stroke-width="1.5"></path><path d="M259.35 668.01L218.15 855.64" stroke="hsl(225, 72.7%, 73.9%)" stroke-width="1.5"></path><path d="M259.35 668.01L63.12 704.29" stroke="hsl(225, 72.7%, 73.9%)" stroke-width="1.5"></path><path d="M259.35 668.01L88.17 794.24" stroke="hsl(225, 72.7%, 73.9%)" stroke-width="1.5"></path><path d="M259.35 668.01L514.91 656.21" stroke="hsl(225, 72.7%, 73.9%)" stroke-width="1.5"></path><path d="M259.35 668.01L222.76 954.73" stroke="hsl(225, 72.7%, 73.9%)" stroke-width="1.5"></path><path d="M218.15 855.64L218.15 855.64" stroke="hsl(225, 72.7%, 73.9%)" stroke-width="1.5"></path><path d="M218.15 855.64L222.76 954.73" stroke="hsl(225, 72.7%, 73.9%)" stroke-width="1.5"></path><path d="M222.76 954.73L222.76 954.73" stroke="hsl(225, 72.7%, 73.9%)" stroke-width="1.5"></path><path d="M222.76 954.73L88.17 794.24" stroke="hsl(225, 72.7%, 73.9%)" stroke-width="1.5"></path><path d="M222.76 954.73L377.72 711.87" stroke="hsl(225, 72.7%, 73.9%)" stroke-width="1.5"></path><path d="M514.91 656.21L514.91 656.21" stroke="hsl(225, 72.7%, 73.9%)" stroke-width="1.5"></path><path d="M514.91 656.21L702.59 669.45" stroke="hsl(225, 72.7%, 73.9%)" stroke-width="1.5"></path><path d="M514.91 656.21L691.07 557.74" stroke="hsl(225, 72.7%, 73.9%)" stroke-width="1.5"></path><path d="M691.07 557.74L691.07 557.74" stroke="hsl(225, 72.7%, 73.9%)" stroke-width="1.5"></path><path d="M691.07 557.74L702.59 669.45" stroke="hsl(225, 72.7%, 73.9%)" stroke-width="1.5"></path><path d="M702.59 669.45L702.59 669.45" stroke="hsl(225, 72.7%, 73.9%)" stroke-width="1.5"></path><path d="M702.59 669.45L855 559.45" stroke="hsl(225, 72.7%, 73.9%)" stroke-width="1.5"></path><path d="M692.19 975.8L692.19 975.8" stroke="hsl(225, 72.7%, 73.9%)" stroke-width="1.5"></path><path d="M692.19 975.8L953.87 972.06" stroke="hsl(225, 72.7%, 73.9%)" stroke-width="1.5"></path><path d="M855 559.45L855 559.45" stroke="hsl(225, 72.7%, 73.9%)" stroke-width="1.5"></path><path d="M855 559.45L996.63 546.67" stroke="hsl(225, 72.7%, 73.9%)" stroke-width="1.5"></path><path d="M996.63 546.67L996.63 546.67" stroke="hsl(225, 72.7%, 73.9%)" stroke-width="1.5"></path><path d="M996.63 546.67L1124.25 521.02" stroke="hsl(225, 72.7%, 73.9%)" stroke-width="1.5"></path><path d="M996.63 546.67L1147.77 671.68" stroke="hsl(225, 72.7%, 73.9%)" stroke-width="1.5"></path><path d="M996.63 546.67L1088.81 367.52" stroke="hsl(225, 72.7%, 73.9%)" stroke-width="1.5"></path><path d="M947.96 788.59L947.96 788.59" stroke="hsl(225, 72.7%, 73.9%)" stroke-width="1.5"></path><path d="M947.96 788.59L1115.65 818.18" stroke="hsl(225, 72.7%, 73.9%)" stroke-width="1.5"></path><path d="M947.96 788.59L953.87 972.06" stroke="hsl(225, 72.7%, 73.9%)" stroke-width="1.5"></path><path d="M947.96 788.59L1121.05 939.27" stroke="hsl(225, 72.7%, 73.9%)" stroke-width="1.5"></path><path d="M947.96 788.59L1147.77 671.68" stroke="hsl(225, 72.7%, 73.9%)" stroke-width="1.5"></path><path d="M947.96 788.59L996.63 546.67" stroke="hsl(225, 72.7%, 73.9%)" stroke-width="1.5"></path><path d="M953.87 972.06L953.87 972.06" stroke="hsl(225, 72.7%, 73.9%)" stroke-width="1.5"></path><path d="M953.87 972.06L1121.05 939.27" stroke="hsl(225, 72.7%, 73.9%)" stroke-width="1.5"></path><path d="M1088.81 367.52L1088.81 367.52" stroke="hsl(225, 72.7%, 73.9%)" stroke-width="1.5"></path><path d="M1088.81 367.52L1124.25 521.02" stroke="hsl(225, 72.7%, 73.9%)" stroke-width="1.5"></path><path d="M1124.25 521.02L1124.25 521.02" stroke="hsl(225, 72.7%, 73.9%)" stroke-width="1.5"></path><path d="M1124.25 521.02L1249.3 562.01" stroke="hsl(225, 72.7%, 73.9%)" stroke-width="1.5"></path><path d="M1115.65 818.18L1115.65 818.18" stroke="hsl(225, 72.7%, 73.9%)" stroke-width="1.5"></path><path d="M1115.65 818.18L1121.05 939.27" stroke="hsl(225, 72.7%, 73.9%)" stroke-width="1.5"></path><path d="M1115.65 818.18L1246.72 829.94" stroke="hsl(225, 72.7%, 73.9%)" stroke-width="1.5"></path><path d="M1121.05 939.27L1121.05 939.27" stroke="hsl(225, 72.7%, 73.9%)" stroke-width="1.5"></path><path d="M1121.05 939.27L1270.79 1010.64" stroke="hsl(225, 72.7%, 73.9%)" stroke-width="1.5"></path><path d="M1121.05 939.27L1246.72 829.94" stroke="hsl(225, 72.7%, 73.9%)" stroke-width="1.5"></path><path d="M1303.92 -83.96L1303.92 -83.96" stroke="hsl(225, 72.7%, 73.9%)" stroke-width="1.5"></path><path d="M1303.92 -83.96L1459.68 -47.79" stroke="hsl(225, 72.7%, 73.9%)" stroke-width="1.5"></path><path d="M1303.92 -83.96L1436.49 60.27" stroke="hsl(225, 72.7%, 73.9%)" stroke-width="1.5"></path><path d="M1303.92 -83.96L1237.99 108.44" stroke="hsl(225, 72.7%, 73.9%)" stroke-width="1.5"></path><path d="M1303.92 -83.96L1565.65 -89.35" stroke="hsl(225, 72.7%, 73.9%)" stroke-width="1.5"></path><path d="M1303.92 -83.96L1240.74 195.21" stroke="hsl(225, 72.7%, 73.9%)" stroke-width="1.5"></path><path d="M1237.99 108.44L1237.99 108.44" stroke="hsl(225, 72.7%, 73.9%)" stroke-width="1.5"></path><path d="M1237.99 108.44L1240.74 195.21" stroke="hsl(225, 72.7%, 73.9%)" stroke-width="1.5"></path><path d="M1240.74 195.21L1240.74 195.21" stroke="hsl(225, 72.7%, 73.9%)" stroke-width="1.5"></path><path d="M1240.74 195.21L1303.21 373.94" stroke="hsl(225, 72.7%, 73.9%)" stroke-width="1.5"></path><path d="M1240.74 195.21L1088.81 367.52" stroke="hsl(225, 72.7%, 73.9%)" stroke-width="1.5"></path><path d="M1303.21 373.94L1303.21 373.94" stroke="hsl(225, 72.7%, 73.9%)" stroke-width="1.5"></path><path d="M1303.21 373.94L1249.3 562.01" stroke="hsl(225, 72.7%, 73.9%)" stroke-width="1.5"></path><path d="M1303.21 373.94L1088.81 367.52" stroke="hsl(225, 72.7%, 73.9%)" stroke-width="1.5"></path><path d="M1249.3 562.01L1249.3 562.01" stroke="hsl(225, 72.7%, 73.9%)" stroke-width="1.5"></path><path d="M1246.72 829.94L1246.72 829.94" stroke="hsl(225, 72.7%, 73.9%)" stroke-width="1.5"></path><path d="M1246.72 829.94L1275.9 684.04" stroke="hsl(225, 72.7%, 73.9%)" stroke-width="1.5"></path><path d="M1246.72 829.94L1416.56 793.3" stroke="hsl(225, 72.7%, 73.9%)" stroke-width="1.5"></path><path d="M1270.79 1010.64L1270.79 1010.64" stroke="hsl(225, 72.7%, 73.9%)" stroke-width="1.5"></path><path d="M1270.79 1010.64L1246.72 829.94" stroke="hsl(225, 72.7%, 73.9%)" stroke-width="1.5"></path><path d="M1270.79 1010.64L1115.65 818.18" stroke="hsl(225, 72.7%, 73.9%)" stroke-width="1.5"></path><path d="M1270.79 1010.64L1416.56 793.3" stroke="hsl(225, 72.7%, 73.9%)" stroke-width="1.5"></path><path d="M1459.68 -47.79L1459.68 -47.79" stroke="hsl(225, 72.7%, 73.9%)" stroke-width="1.5"></path><path d="M1459.68 -47.79L1436.49 60.27" stroke="hsl(225, 72.7%, 73.9%)" stroke-width="1.5"></path><path d="M1459.68 -47.79L1565.65 -89.35" stroke="hsl(225, 72.7%, 73.9%)" stroke-width="1.5"></path><path d="M1436.49 60.27L1436.49 60.27" stroke="hsl(225, 72.7%, 73.9%)" stroke-width="1.5"></path><path d="M1436.49 60.27L1565.65 -89.35" stroke="hsl(225, 72.7%, 73.9%)" stroke-width="1.5"></path><path d="M1436.49 60.27L1237.99 108.44" stroke="hsl(225, 72.7%, 73.9%)" stroke-width="1.5"></path><path d="M1401.47 695.91L1401.47 695.91" stroke="hsl(225, 72.7%, 73.9%)" stroke-width="1.5"></path><path d="M1401.47 695.91L1249.3 562.01" stroke="hsl(225, 72.7%, 73.9%)" stroke-width="1.5"></path><path d="M1401.47 695.91L1246.72 829.94" stroke="hsl(225, 72.7%, 73.9%)" stroke-width="1.5"></path><path d="M1565.65 -89.35L1565.65 -89.35" stroke="hsl(225, 72.7%, 73.9%)" stroke-width="1.5"></path><path d="M1565.65 -89.35L1594.72 234.56" stroke="hsl(225, 72.7%, 73.9%)" stroke-width="1.5"></path><path d="M1594.72 234.56L1594.72 234.56" stroke="hsl(225, 72.7%, 73.9%)" stroke-width="1.5"></path><path d="M1594.72 234.56L1600.13 54.19" stroke="hsl(225, 72.7%, 73.9%)" stroke-width="1.5"></path><path d="M1594.72 234.56L1436.49 60.27" stroke="hsl(225, 72.7%, 73.9%)" stroke-width="1.5"></path><path d="M1594.72 234.56L1563.79 545.22" stroke="hsl(225, 72.7%, 73.9%)" stroke-width="1.5"></path><path d="M1606.8 684.67L1606.8 684.67" stroke="hsl(225, 72.7%, 73.9%)" stroke-width="1.5"></path><path d="M1606.8 684.67L1401.47 695.91" stroke="hsl(225, 72.7%, 73.9%)" stroke-width="1.5"></path><path d="M1606.8 684.67L1416.56 793.3" stroke="hsl(225, 72.7%, 73.9%)" stroke-width="1.5"></path><path d="M1606.8 684.67L1600.72 382.85" stroke="hsl(225, 72.7%, 73.9%)" stroke-width="1.5"></path><path d="M1606.8 684.67L1582.98 1005.54" stroke="hsl(225, 72.7%, 73.9%)" stroke-width="1.5"></path><path d="M1582.98 1005.54L1582.98 1005.54" stroke="hsl(225, 72.7%, 73.9%)" stroke-width="1.5"></path><path d="M1582.98 1005.54L1416.56 793.3" stroke="hsl(225, 72.7%, 73.9%)" stroke-width="1.5"></path><path d="M1582.98 1005.54L1270.79 1010.64" stroke="hsl(225, 72.7%, 73.9%)" stroke-width="1.5"></path><path d="M1582.98 1005.54L1401.47 695.91" stroke="hsl(225, 72.7%, 73.9%)" stroke-width="1.5"></path><circle r="25" cx="-110.57" cy="1007.94" fill="url(&quot;#SvgjsRadialGradient1094&quot;)"></circle><circle r="25" cx="377.72" cy="711.87" fill="url(&quot;#SvgjsRadialGradient1094&quot;)"></circle><circle r="25" cx="339.78" cy="970.09" fill="url(&quot;#SvgjsRadialGradient1094&quot;)"></circle><circle r="25" cx="497.29" cy="966.81" fill="url(&quot;#SvgjsRadialGradient1094&quot;)"></circle><circle r="25" cx="653.36" cy="809.15" fill="url(&quot;#SvgjsRadialGradient1094&quot;)"></circle><circle r="25" cx="803.58" cy="659.35" fill="url(&quot;#SvgjsRadialGradient1094&quot;)"></circle><circle r="25" cx="1147.77" cy="671.68" fill="url(&quot;#SvgjsRadialGradient1094&quot;)"></circle><circle r="25" cx="1275.9" cy="684.04" fill="url(&quot;#SvgjsRadialGradient1094&quot;)"></circle><circle r="25" cx="1423.71" cy="384.5" fill="url(&quot;#SvgjsRadialGradient1094&quot;)"></circle><circle r="25" cx="1416.56" cy="793.3" fill="url(&quot;#SvgjsRadialGradient1094&quot;)"></circle><circle r="25" cx="1431.23" cy="995.78" fill="url(&quot;#SvgjsRadialGradient1094&quot;)"></circle><circle r="25" cx="1600.13" cy="54.19" fill="url(&quot;#SvgjsRadialGradient1094&quot;)"></circle><circle r="25" cx="1600.72" cy="382.85" fill="url(&quot;#SvgjsRadialGradient1094&quot;)"></circle><circle r="25" cx="1563.79" cy="545.22" fill="url(&quot;#SvgjsRadialGradient1094&quot;)"></circle><circle r="5" cx="-88.77" cy="813.76" fill="#a0b4f0"></circle><circle r="5" cx="63.12" cy="704.29" fill="#a0b4f0"></circle><circle r="5" cx="88.17" cy="794.24" fill="#a0b4f0"></circle><circle r="5" cx="107.41" cy="957.6" fill="#a0b4f0"></circle><circle r="5" cx="259.35" cy="668.01" fill="#a0b4f0"></circle><circle r="5" cx="218.15" cy="855.64" fill="#a0b4f0"></circle><circle r="5" cx="222.76" cy="954.73" fill="#a0b4f0"></circle><circle r="5" cx="514.91" cy="656.21" fill="#a0b4f0"></circle><circle r="5" cx="691.07" cy="557.74" fill="#a0b4f0"></circle><circle r="5" cx="702.59" cy="669.45" fill="#a0b4f0"></circle><circle r="5" cx="692.19" cy="975.8" fill="#a0b4f0"></circle><circle r="5" cx="855" cy="559.45" fill="#a0b4f0"></circle><circle r="5" cx="996.63" cy="546.67" fill="#a0b4f0"></circle><circle r="5" cx="947.96" cy="788.59" fill="#a0b4f0"></circle><circle r="5" cx="953.87" cy="972.06" fill="#a0b4f0"></circle><circle r="5" cx="1088.81" cy="367.52" fill="#a0b4f0"></circle><circle r="5" cx="1124.25" cy="521.02" fill="#a0b4f0"></circle><circle r="5" cx="1115.65" cy="818.18" fill="#a0b4f0"></circle><circle r="5" cx="1121.05" cy="939.27" fill="#a0b4f0"></circle><circle r="5" cx="1303.92" cy="-83.96" fill="#a0b4f0"></circle><circle r="5" cx="1237.99" cy="108.44" fill="#a0b4f0"></circle><circle r="5" cx="1240.74" cy="195.21" fill="#a0b4f0"></circle><circle r="5" cx="1303.21" cy="373.94" fill="#a0b4f0"></circle><circle r="5" cx="1249.3" cy="562.01" fill="#a0b4f0"></circle><circle r="5" cx="1246.72" cy="829.94" fill="#a0b4f0"></circle><circle r="5" cx="1270.79" cy="1010.64" fill="#a0b4f0"></circle><circle r="5" cx="1459.68" cy="-47.79" fill="#a0b4f0"></circle><circle r="5" cx="1436.49" cy="60.27" fill="#a0b4f0"></circle><circle r="5" cx="1401.47" cy="695.91" fill="#a0b4f0"></circle><circle r="5" cx="1565.65" cy="-89.35" fill="#a0b4f0"></circle><circle r="5" cx="1594.72" cy="234.56" fill="#a0b4f0"></circle><circle r="5" cx="1606.8" cy="684.67" fill="#a0b4f0"></circle><circle r="5" cx="1582.98" cy="1005.54" fill="#a0b4f0"></circle></g><defs><mask id="SvgjsMask1093"><rect width="1500" height="850" fill="#ffffff"></rect></mask><radialGradient id="SvgjsRadialGradient1094"><stop stop-color="#ffffff" offset="0.1"></stop><stop stop-color="rgba(65, 105, 225, 1)" offset="0.2"></stop><stop stop-color="rgba(65, 105, 225, 0)" offset="1"></stop></radialGradient></defs></svg>